<svg width="512" height="512" viewBox="0 0 512 512" fill="none" xmlns="http://www.w3.org/2000/svg">
<g clip-path="url(#clip0_1_3)">
<path d="M248.8 112.8C246.4 112.8 244.8 112 243.2 110.4C240 107.2 240 102.4 243.2 99.2L248 94.4C252 89.6 252 82.4 248 78.4C244 74.4 236.8 74.4 232 78.4L205.6 104.8C202.4 108 197.6 108 194.4 104.8C191.2 101.6 191.2 96.8 194.4 93.6L220.8 67.2C232 56.8 248.8 56.8 259.2 67.2C269.6 77.6 269.6 94.4 259.2 105.6L254.4 110.4C252.8 112 251.2 112.8 248.8 112.8ZM144.8 100.8C142.4 100.8 140.8 100 139.2 98.4C136 95.2 136 90.4 139.2 87.2L147.2 79.2C151.2 74.4 151.2 67.2 147.2 63.2C143.2 59.2 135.2 59.2 131.2 63.2L101.6 92.8C98.4 96 93.6 96 90.4 92.8C87.2 89.6 87.2 84.8 90.4 81.6L120 52C129.6 42.4 148.8 42.4 158.4 52C168.8 62.4 168.8 79.2 158.4 90.4L150.4 98.4C148.8 100 147.2 100.8 144.8 100.8Z" fill="black"/>
<path d="M216.8 236C215.2 236 213.6 235.2 212 234.4C164 202.4 80.8 155.2 13.6 128C11.2 127.2 8.8 125.6 6.4 123.2C-2.4 114.4 -2.4 100.8 6.4 91.2L7.2 90.4C20 78.4 37.6 72.8 56 74.4L248.8 96.8L321.6 108.8C325.6 109.6 328.8 113.6 328 117.6C327.2 121.6 323.2 124.8 319.2 124L246.4 112L54.4 90.4C40.8 88.8 28 93.6 17.6 102.4C15.2 105.6 15.2 109.6 17.6 112C18.4 112.8 19.2 112.8 20 113.6C87.2 140.8 172 188.8 220.8 221.6C224.8 224 225.6 228.8 223.2 232.8C221.6 234.4 219.2 236 216.8 236ZM416 318.4C413.6 318.4 412 317.6 410.4 316C407.2 312.8 407.2 308 410.4 304.8L436.8 278.4C440.8 273.6 440.8 266.4 436.8 262.4C432.8 258.4 425.6 258.4 420.8 262.4L416 267.2C412.8 270.4 408 270.4 404.8 267.2C401.6 264 401.6 259.2 404.8 256L409.6 251.2C420.8 240.8 437.6 240.8 448 251.2C458.4 261.6 458.4 278.4 448 289.6L421.6 316C420 317.6 418.4 318.4 416 318.4ZM428 421.6C425.6 421.6 424 420.8 422.4 419.2C419.2 416 419.2 411.2 422.4 408L451.2 378.4C455.2 373.6 455.2 366.4 451.2 362.4C447.2 358.4 440 358.4 435.2 362.4L427.2 370.4C424 373.6 419.2 373.6 416 370.4C412.8 367.2 412.8 362.4 416 359.2L424 351.2C435.2 340.8 452 340.8 462.4 351.2C472.8 361.6 472.8 378.4 462.4 389.6L433.6 419.2C432 420.8 430.4 421.6 428 421.6Z" fill="black"/>
<path d="M407.2 509.6C401.6 509.6 395.2 507.2 391.2 503.2C388.8 500.8 387.2 498.4 386.4 496C358.4 428 311.2 342.4 278.4 292.8C276 288.8 276.8 284 280.8 281.6C284.8 279.2 289.6 280 292 284C325.6 334.4 373.6 420.8 401.6 489.6C402.4 490.4 402.4 491.2 403.2 492C405.6 494.4 410.4 494.4 412.8 492C422.4 482.4 427.2 468.8 425.6 455.2L403.2 261.6L392 185.6C391.2 181.6 394.4 176.8 398.4 176.8C402.4 176 407.2 179.2 407.2 183.2L418.4 259.2L440.8 452.8C442.4 471.2 436 489.6 423.2 502.4C419.2 508 412.8 509.6 407.2 509.6ZM113.6 382.4C112 382.4 110.4 381.6 108.8 380.8L23.2 323.2C19.2 320 16.8 315.2 16 310.4C16 305.6 17.6 301.6 20.8 297.6L35.2 283.2C40 278.4 44.8 278.4 48.8 278.4H50.4L141.6 300.8C145.6 301.6 148.8 306.4 147.2 310.4C146.4 314.4 141.6 317.6 137.6 316L48.8 295.2H47.2L32.8 309.6L118.4 368C122.4 370.4 123.2 375.2 120.8 379.2C118.4 380.8 116 382.4 113.6 382.4ZM204 495.2H201.6C196.8 494.4 192.8 492 190.4 488L128 395.2C125.6 391.2 126.4 386.4 130.4 384C134.4 381.6 139.2 382.4 141.6 386.4L204 478.4L217.6 464.8L190.4 369.6C188.8 365.6 192 360.8 196 360C200 359.2 204.8 361.6 205.6 365.6L232.8 460.8C234.4 465.6 232.8 472 228 476.8L213.6 491.2C212 493.6 208 495.2 204 495.2Z" fill="black"/>
<path d="M144.8 396C142.4 396 139.2 396 136.8 395.2C132.8 394.4 129.6 390.4 130.4 386.4C131.2 382.4 135.2 379.2 139.2 380C156 382.4 184 371.2 192 363.2L458.4 120C484.8 94.4 505.6 40.8 489.6 24C485.6 20 479.2 17.6 470.4 18.4C446.4 18.4 411.2 35.2 392 54.4L145.6 315.2C137.6 323.2 125.6 349.6 128.8 367.2C129.6 371.2 126.4 376 122.4 376C118.4 376.8 113.6 373.6 113.6 369.6C109.6 346.4 124 315.2 135.2 304L381.6 42.4C404 19.2 443.2 1.6 471.2 0.8H472C484.8 0.8 495.2 4 502.4 11.2C528 37.6 501.6 100 471.2 129.6L204 373.6C194.4 384 167.2 396 144.8 396Z" fill="black"/>
<path d="M454.4 88C450.4 88 446.4 84.8 446.4 80.8C445.6 73.6 440 68.8 432 68H430.4C425.6 68 422.4 64.8 422.4 60C422.4 55.2 425.6 52 430.4 52H432.8C449.6 52.8 461.6 64 462.4 79.2C462.4 84 459.2 88 454.4 88ZM109.6 418.4C104 418.4 98.4 416 94.4 412C90.4 408 88 403.2 88 397.6C88 392 90.4 386.4 93.6 382.4L139.2 336.8C146.4 329.6 161.6 329.6 168.8 336.8C172.8 340.8 174.4 345.6 174.4 352C174.4 358.4 172 363.2 168.8 367.2L123.2 412.8C120.8 416 115.2 418.4 109.6 418.4ZM155.2 347.2C153.6 347.2 152.8 348 152 348.8L106.4 394.4C105.6 395.2 104.8 396.8 104.8 397.6C104.8 399.2 105.6 400 106.4 400.8C108.8 403.2 111.2 403.2 112.8 401.6L159.2 355.2C160 354.4 160.8 352.8 160.8 352C160.8 351.2 160 349.6 159.2 348.8C157.6 347.2 156 347.2 155.2 347.2Z" fill="black"/>
</g>
<defs>
<clipPath id="clip0_1_3">
<rect width="512" height="512" fill="white"/>
</clipPath>
</defs>
</svg>
