<svg width="512" height="512" viewBox="0 0 512 512" fill="none" xmlns="http://www.w3.org/2000/svg">
<g clip-path="url(#clip0_1_11)">
<path d="M110.043 480.148C111.626 476.33 109.815 471.952 105.997 470.369C102.18 468.787 97.8016 470.598 96.2187 474.416C94.6358 478.233 96.4474 482.611 100.265 484.194C104.083 485.777 108.461 483.966 110.043 480.148Z" fill="black"/>
<path d="M471.674 231.554C482.557 231.554 491.411 222.7 491.411 211.817V204.303C491.411 194.864 484.975 186.836 475.759 184.783L447.711 178.539C447.372 178.5 447.179 178.377 446.01 178.359H389.087V139.15C389.087 121.495 377.99 106.39 362.407 100.418C368.076 95.126 372.433 88.343 374.87 80.512C375.163 79.5715 375.267 78.5826 375.178 77.6018C375.088 76.6209 374.806 75.6673 374.348 74.7953C373.89 73.9234 373.265 73.1502 372.508 72.5199C371.751 71.8897 370.878 71.4147 369.937 71.122C368.997 70.8294 368.008 70.7248 367.027 70.8143C366.046 70.9038 365.092 71.1857 364.22 71.6438C363.348 72.1018 362.575 72.7272 361.945 73.484C361.315 74.2409 360.84 75.1145 360.547 76.055C356.524 88.983 344.712 97.668 331.155 97.668C315.612 97.989 300.077 84.048 300.379 66.892V50.612H387.883C392.025 50.612 395.383 47.255 395.383 43.112C395.383 38.969 392.025 35.612 387.883 35.612H376.931V33.536C376.932 15.044 361.884 6.0437e-07 343.387 6.0437e-07H318.925C300.047 -0.0879994 284.368 16.357 285.38 35.611H273.237C269.095 35.611 265.737 38.968 265.737 43.111C265.737 47.254 269.095 50.611 273.237 50.611H285.38V66.892C285.367 79.051 290.678 92.004 300.264 100.669C289.47 105.014 280.909 113.767 276.831 124.694L201.547 220.649C201.535 220.664 201.526 220.68 201.515 220.694L185.749 240.787C184.143 242.823 182.956 245.157 182.258 247.654C181.56 250.151 181.364 252.762 181.681 255.336C182.189 259.975 185.443 266.121 190.387 269.515L164.982 326.019L113.577 302.965C97.17 295.602 77.828 302.967 70.464 319.379L23.466 424.168C19.897 432.115 19.64 440.977 22.741 449.121C25.843 457.266 31.93 463.713 39.877 467.272L68.314 480.035C69.79 497.907 84.796 512 103.041 512C122.261 512 137.898 496.363 137.898 477.143C137.898 457.923 122.261 442.287 103.041 442.287C88.246 442.287 75.583 451.557 70.532 464.59L46.013 453.586C43.8988 452.646 41.9923 451.295 40.404 449.613C38.8156 447.93 37.577 445.949 36.76 443.784C35.9303 441.624 35.5376 439.321 35.6049 437.008C35.6722 434.695 36.1981 432.418 37.152 430.31L84.152 325.521C88.129 316.654 98.576 312.672 107.44 316.654L118.747 321.725L87.569 389.923C86.7421 391.732 86.6677 393.795 87.3622 395.659C88.0566 397.523 89.463 399.035 91.272 399.862C93.0811 400.689 95.1445 400.763 97.0084 400.069C98.8724 399.374 100.384 397.968 101.211 396.159L132.434 327.863L158.838 339.705L123.76 417.92C122.986 419.728 122.953 421.769 123.669 423.601C124.384 425.433 125.791 426.911 127.586 427.716C129.381 428.521 131.42 428.589 133.264 427.905C135.108 427.221 136.61 425.84 137.446 424.059L203.455 277.035C207.878 278.11 214.912 276.941 220.025 272.878L242.252 254.666C242.61 254.309 242.681 254.366 243.431 253.453L274.23 214.201V253.403C274.23 259.196 274.855 264.989 276.078 270.63L285.303 354.595C285.944 360.377 285.436 366.23 283.808 371.815L250.124 491.077C249.493 493.558 249.439 496.15 249.968 498.655C250.497 501.16 251.594 503.509 253.174 505.523C254.742 507.547 256.754 509.183 259.055 510.307C261.355 511.43 263.883 512.01 266.443 512.002H322.714C328.211 512.002 333.244 509.227 336.177 504.577C337.619 502.306 338.458 499.705 338.617 497.02C338.775 494.335 338.246 491.653 337.081 489.229L326.937 467.965L357.44 363.183L362.103 367.259C365.722 370.421 368.375 374.541 369.757 379.144L405.654 496.48C409.363 505.964 418.384 512.67 430.67 509.175L478.486 493.551C483.825 491.808 487.69 487.483 488.826 481.982C489.962 476.481 488.125 470.979 483.913 467.262L464.733 450.34L435.707 354.312C433.357 346.541 430.432 338.956 426.955 331.62L389.088 251.715V231.555L471.674 231.554ZM103.041 457.286C113.99 457.286 122.898 466.193 122.898 477.142C122.898 488.091 113.99 497 103.041 497C92.092 497 83.184 488.092 83.184 477.143C83.184 466.194 92.092 457.286 103.041 457.286ZM476.412 204.303V211.817C476.411 213.073 475.911 214.277 475.023 215.165C474.135 216.053 472.931 216.553 471.675 216.554H453.582V195.213L472.499 199.424C473.611 199.666 474.607 200.283 475.319 201.171C476.031 202.059 476.417 203.165 476.412 204.303ZM438.582 216.554H375.746C361.436 216.554 348.405 208.117 342.551 195.069L324.932 155.675C322.321 149.837 324.947 142.963 330.784 140.353C334.929 138.061 343.471 140.037 346.106 146.205L363.721 185.589C364.765 187.904 366.455 189.869 368.588 191.248C370.721 192.626 373.207 193.36 375.747 193.36H438.583V216.554H438.582ZM300.38 33.536C300.38 23.315 308.699 15.001 318.925 15.001H343.387C353.795 14.957 362.866 24.514 361.932 35.612H300.38V33.536ZM315.697 112.68H347.607C362.208 112.68 374.087 124.555 374.087 139.151V172.031L359.796 140.079C356.896 133.594 351.643 128.627 345.006 126.092C338.369 123.558 331.142 123.759 324.657 126.66C311.27 132.647 305.25 148.41 311.237 161.799L328.86 201.201C336.906 219.134 354.535 230.891 374.087 231.523V245.9H289.227V139.15C289.228 124.555 301.102 112.68 315.697 112.68ZM210.517 261.273C209.64 261.999 208.54 262.401 207.402 262.413C206.264 262.425 205.156 262.046 204.264 261.339L198.352 256.7C197.861 256.317 197.451 255.841 197.146 255.299C196.841 254.756 196.646 254.159 196.573 253.541C196.497 252.923 196.544 252.297 196.712 251.697C196.879 251.098 197.164 250.538 197.55 250.049L208.718 235.815L225.508 248.99L210.517 261.273ZM236.227 238.33L217.977 224.01L274.227 152.315V189.899L236.227 238.33ZM298.211 375.996C300.39 368.522 301.07 360.692 300.212 352.954L290.098 260.903H371.591L313.309 461.112H273.488L298.211 375.996ZM323.49 496.572C323.219 497 322.838 497 322.713 497H266.442C265.705 497 265.252 496.617 265.002 496.297C264.827 496.08 264.706 495.825 264.649 495.553C264.591 495.28 264.599 494.998 264.671 494.729L269.348 476.113H314.205L323.543 495.687C323.596 495.799 323.76 496.144 323.49 496.572ZM474.135 478.948C474.081 479.21 473.935 479.258 473.827 479.293L426.01 494.917C425.407 495.116 424.77 495.193 424.137 495.144C423.503 495.096 422.886 494.922 422.32 494.633C421.753 494.347 421.248 493.951 420.834 493.468C420.421 492.986 420.107 492.426 419.911 491.821L414.926 476.563L456.417 463.006L473.989 478.509C474.073 478.583 474.19 478.686 474.135 478.948ZM421.348 358.651L448.866 449.69L410.436 462.247L384.12 374.821C381.927 367.518 377.717 360.982 371.974 355.965L362.063 347.301L383.268 274.459L413.402 338.045C416.558 344.707 419.214 351.595 421.348 358.651Z" fill="black"/>
</g>
<defs>
<clipPath id="clip0_1_11">
<rect width="512" height="512" fill="white"/>
</clipPath>
</defs>
</svg>
