<svg width="512" height="512" viewBox="0 0 512 512" fill="none" xmlns="http://www.w3.org/2000/svg">
<g clip-path="url(#clip0_2_22)">
<path d="M511.511 501.837L436.511 304.267C435.888 302.627 434.71 301.257 433.181 300.395L353.295 255.389L376.618 218.41C390.932 195.696 398.499 169.447 398.499 142.501C398.499 63.9259 334.574 0.000999451 255.999 0.000999451C177.425 0.000999451 113.5 63.9259 113.5 142.501C113.5 169.454 121.07 195.704 135.392 218.412L158.709 255.391L78.8198 300.395C77.2906 301.256 76.1118 302.627 75.4888 304.267L0.48899 501.837C-0.0569924 503.278 -0.146094 504.852 0.233795 506.345C0.613683 507.838 1.44414 509.178 2.61228 510.183C3.78043 511.188 5.22961 511.808 6.76285 511.961C8.2961 512.113 9.83904 511.789 11.182 511.034L131.75 443.108L252.317 511.034C253.441 511.667 254.709 511.999 255.999 511.999C257.289 511.999 258.557 511.667 259.68 511.034L380.248 443.108L500.816 511.034C502.159 511.791 503.702 512.116 505.236 511.965C506.77 511.813 508.22 511.192 509.389 510.187C510.558 509.182 511.389 507.841 511.768 506.347C512.148 504.853 512.058 503.278 511.511 501.837ZM263.5 388.711C268.27 387.026 272.33 383.778 275.021 379.494C275.402 378.894 339.25 277.66 339.25 277.66L371.769 430.668L263.5 491.664V388.711ZM148.08 210.409C135.271 190.099 128.501 166.617 128.501 142.5C128.501 72.1958 185.697 15 256 15C326.304 15 383.5 72.1958 383.5 142.5C383.5 166.612 376.732 190.096 363.931 210.409C362.93 211.996 264.108 368.707 262.384 371.414C262.368 371.437 262.354 371.461 262.339 371.484C260.948 373.684 258.579 374.999 256 374.999C253.419 374.999 251.039 373.678 249.646 371.488C248.644 369.899 149.626 212.878 148.114 210.464L148.08 210.409ZM88.5478 312.13L158.464 272.743L146.284 330.047C146.051 331.141 146.065 332.273 146.326 333.36C146.587 334.447 147.088 335.462 147.792 336.331C148.496 337.2 149.385 337.9 150.395 338.381C151.404 338.862 152.509 339.11 153.627 339.109C155.344 339.107 157.008 338.516 158.341 337.434C159.675 336.353 160.597 334.847 160.955 333.167L172.752 277.665L236.973 379.514C239.674 383.786 243.734 387.024 248.498 388.71V491.666L140.232 430.669L154.719 362.51C154.924 361.547 154.937 360.553 154.757 359.584C154.578 358.616 154.209 357.692 153.673 356.866C153.137 356.04 152.443 355.328 151.631 354.77C150.82 354.212 149.906 353.819 148.943 353.614C147.979 353.409 146.985 353.395 146.016 353.574C145.047 353.753 144.124 354.122 143.297 354.658C142.471 355.195 141.759 355.889 141.201 356.701C140.643 357.513 140.251 358.427 140.047 359.39L125.118 429.626L21.8619 487.8L88.5478 312.13ZM386.882 429.627L353.539 272.742L423.452 312.13L490.139 487.8L386.882 429.627Z" fill="black"/>
<path d="M338.501 142.5C338.501 97.0099 301.491 59.9999 256.001 59.9999C210.511 59.9999 173.501 97.0099 173.501 142.5C173.501 187.99 210.511 225 256.001 225C301.491 225 338.501 187.99 338.501 142.5ZM188.501 142.5C188.501 105.28 218.781 74.9999 256.001 74.9999C293.221 74.9999 323.501 105.28 323.501 142.5C323.501 179.72 293.221 210 256.001 210C218.781 210 188.501 179.72 188.501 142.5Z" fill="black"/>
<path d="M308.5 142.5C308.5 113.552 284.948 89.9998 256 89.9998C227.052 89.9998 203.5 113.552 203.5 142.5C203.5 171.448 227.052 195 256 195C284.948 195 308.5 171.448 308.5 142.5ZM218.5 142.5C218.5 121.822 235.322 105 256 105C276.678 105 293.5 121.822 293.5 142.5C293.5 163.178 276.678 180 256 180C235.322 180 218.5 163.178 218.5 142.5Z" fill="black"/>
</g>
<defs>
<clipPath id="clip0_2_22">
<rect width="512" height="512" fill="white"/>
</clipPath>
</defs>
</svg>
