<svg width="24" height="24" viewBox="0 0 24 24" fill="none" xmlns="http://www.w3.org/2000/svg">
<path d="M24.007 12.0004C24.0064 9.70653 23.3486 7.46087 22.1114 5.52926C20.8741 3.59765 19.1093 2.061 17.0259 1.10122C14.9425 0.141447 12.6276 -0.20126 10.3555 0.113678C8.08335 0.428616 5.94901 1.38801 4.20517 2.87827C2.46134 4.36854 1.18103 6.32727 0.515817 8.52257C-0.149396 10.7179 -0.171655 13.0578 0.451681 15.2654C1.07502 17.4729 2.31784 19.4556 4.03301 20.9788C5.74819 22.502 7.86389 23.5018 10.1296 23.8599V15.4681H7.08341V12.0004H10.1283V9.35696C10.0629 8.7394 10.1342 8.11503 10.337 7.52808C10.5398 6.94112 10.8693 6.40596 11.302 5.96053C11.7347 5.51509 12.2601 5.17028 12.8409 4.95053C13.4217 4.73078 14.0438 4.64146 14.663 4.68892C15.5643 4.70175 16.4635 4.7811 17.3531 4.92633V7.8792H15.838C15.5803 7.84517 15.3182 7.86951 15.0712 7.95044C14.8241 8.03137 14.5985 8.16682 14.4109 8.34675C14.2232 8.52668 14.0785 8.74649 13.9873 8.98992C13.8961 9.23335 13.8608 9.49418 13.8841 9.75308V12.0004H17.2184L16.6849 15.4681H13.8841V23.8546C16.7062 23.4069 19.276 21.9672 21.1316 19.7943C22.9872 17.6214 24.0068 14.8578 24.007 12.0004Z" fill="#182268"/>
<path d="M16.6797 15.4734L17.2132 12.0057H13.8789V9.75436C13.8557 9.49545 13.891 9.23463 13.9822 8.9912C14.0733 8.74777 14.2181 8.52796 14.4057 8.34803C14.5933 8.1681 14.819 8.03264 15.066 7.95171C15.313 7.87078 15.5751 7.84645 15.8328 7.88048H17.3466V4.92761C16.457 4.78237 15.5578 4.70301 14.6565 4.69019C14.0373 4.64273 13.4152 4.73206 12.8344 4.95181C12.2536 5.17156 11.7282 5.51637 11.2955 5.96181C10.8628 6.40724 10.5333 6.94239 10.3305 7.52935C10.1277 8.1163 10.0564 8.74067 10.1218 9.35823V12.0017H7.07693V15.4694H10.1218V23.8558C10.7416 23.9538 11.3682 24.002 11.9957 23.9999C12.6235 23.9987 13.2503 23.9506 13.8709 23.8558V15.4694L16.6797 15.4734Z" fill="white"/>
</svg>
