<?xml version="1.0" encoding="UTF-8"?>
<svg id="Layer_1" xmlns="http://www.w3.org/2000/svg" viewBox="0 0 961.4 314.88">
  <defs>
    <style>
      .cls-1 {
        fill: #1b1464;
      }
    </style>
  </defs>
  <g>
    <path class="cls-1" d="M0,29.47c5.5,9.52,10.33,19.4,14.96,29.35,2.5,5.61,5.18,10.8,9.15,15.32,7.21,8.53,17.33,14.47,28.29,16.39,1.51.31,3.84.54,5.39.67,1.87.06,3.89.11,5.77.07,7.34-.09,14.68-.11,22.02.03,16.6.21,33.02,8.18,43.1,21.39,8.66,11.15,12.79,26.17,9.53,39.92,0,0-.64,0-.64,0-1.62-6.4-3.73-12.13-7-17.65-8.81-15.23-25.35-25.7-42.99-25.99-9.15.05-18.33.22-27.48-.07-7.56-.25-15.14-2.08-22.02-5.18-17.35-8.12-28.79-23.1-32.2-41.85C3.54,51.15,1.39,40.38,0,29.47h0Z"/>
    <path class="cls-1" d="M281.59,0c2.4,8.2,4.27,16.47,5.99,24.81,1.42,6.48,2.55,13.14,2.36,19.81-.4,12.17-3.5,25.27-12.75,33.86-3.92,3.7-8.69,6.29-13.73,8.02-3.46,1.23-6.85,1.9-10.37,2.56-5.13.94-10.37,1.89-15.51,2.74-2.52.42-7.56,1.17-10,1.77-15.18,3.71-27.66,14.49-34.32,28.82-3.25,6.99-4.86,14.21-5.52,22.03,0,0-.63.11-.63.11-7.35-16.75-2.41-38.04,9.94-51.54,7.22-8.19,17.08-14.14,27.67-16.85,3.14-.84,6.68-1.37,9.87-1.95,4.14-.72,8.28-1.4,12.44-2.05,6.52-1.02,14.1-1.76,19.43-5.96,5.42-4.21,7.9-10.7,10.01-17.28,1.98-6.53,2.81-13.45,2.92-20.29.43-9.56.98-19.1,2.21-28.61h0Z"/>
    <path class="cls-1" d="M151.59,152.96c-14.38,18.01-9.04,45.78,12.47,54.7,3.46,1.31,15.73,5.7,19.27,7.03,1.36.54,2.78,1.13,4.11,1.74,1.16.61,2.96,1.48,4.05,2.2,2.62,1.54,5.22,3.55,7.45,5.6,5.18,4.83,9.22,10.94,11.69,17.58,7.63,20.4.27,42.3-18.73,53.22-3.02,1.66-6.07,3.06-9.29,4.07-1.75.6-4.73,1.37-6.5,1.92-7.1,2.03-14.94,4.33-22.04,6.23-9.83,2.69-19.69,5.28-29.66,7.62l-.22-.57c13.33-7.6,26.87-14.62,40.5-21.6,2.34-1.16,7.98-4.03,10.22-5.14,2.92-1.4,5.82-3.16,8.2-5.27,2.93-2.7,5.31-5.84,6.96-9.43,3.21-6.84,4.46-14.72,3.2-22.19-1.13-6.64-4.73-12.78-9.9-17.09-.67-.5-1.67-1.36-2.38-1.78-.97-.68-2.21-1.4-3.25-1.96-.53-.32-1.9-.95-2.46-1.24-2.73-1.38-14.9-7.37-17.35-8.77-6.39-3.66-11.88-8.98-15.67-15.29-7.24-12.05-8.11-27.78-1.43-40.22,2.46-4.71,5.93-8.83,10.07-12.07,0,0,.7.7.7.7h0Z"/>
    <path class="cls-1" d="M182.98,162.71c.56,11.78,8.13,22.73,19.23,26.62,6.9,2.47,13.7,1.86,20.46-1.08,0,0,11.9-4.44,11.9-4.44l.76-.27c1.1-.29,2.06-.7,3.24-.89,5.42-1.26,11.42.02,15.5,3.96,2.6,2.42,4.55,5.88,5.88,9.02,1.72,3.89,2.81,7.66,4.63,10.93,1.47,2.58,2.87,3.8,5.45,4.49,9.83,2.06,19.12,6.33,27.66,11.54,12.13,7.3,22.25,17.21,29.52,29.2,1.88,3.27,3.65,6.7,5.07,10.17,0,0-.51.33-.51.33-5.69-6.39-12.02-11.84-18.72-16.43-.96-.61-2.95-1.86-3.85-2.44-.75-.43-3.13-1.78-3.93-2.24-1.58-.78-3.79-1.96-5.37-2.64,0,0-2.71-1.22-2.71-1.22-1-.4-3.19-1.23-4.14-1.61-.82-.26-3.33-1.09-4.2-1.37-3.62-1.02-7.67-1.92-11.41-2.46-2.72-.44-5.8-.8-8.55-1.1-1.95-.23-4.02-.53-5.91-1.12-7.32-2-13.04-8.1-15.76-14.72-1.92-4.33-2.92-8.8-4.13-12.82-.49-1.72-1.07-2.8-1.2-3.22,0,0,.02,0,.04-.01.02-.03.04,0,.08.01.03.02.09-.01.12,0,.06.05.19-.02.19,0,.01,0,.04-.03.04-.06-.03,0-.06-.02-.09-.04-.01-.08-.23-.05-.38-.1-.37-.08-1.14,0-1.58.09-5.61,1.03-14.98,3.64-20.76,4.26-12.39,1.25-25.12-4.39-32.27-14.51-5.37-7.38-7.48-17.06-5.3-25.91,0,0,.99.09.99.09h0Z"/>
    <ellipse class="cls-1" cx="147.79" cy="73.85" rx="23.48" ry="30.01" transform="translate(-17.34 68.47) rotate(-24.68)"/>
  </g>
  <g>
    <path class="cls-1" d="M439.6,112.63c-4.24,3.98-9.6,5.97-16.1,5.97-7.51,0-13.52-2.56-18.04-7.69s-6.77-11.97-6.77-20.55c0-8.02,2.25-14.77,6.74-20.25,4.49-5.48,10.67-8.22,18.53-8.22,5.48,0,10.39,1.61,14.73,4.83,4.34,3.22,6.81,7.47,7.42,12.75h-5.18c-.81-4.01-2.77-7.19-5.86-9.55s-6.85-3.54-11.26-3.54c-5.99,0-10.82,2.19-14.5,6.58-3.68,4.39-5.52,10.19-5.52,17.39s1.81,12.98,5.44,17.32c3.63,4.34,8.44,6.51,14.42,6.51,5.23,0,9.39-1.61,12.48-4.83,3.1-3.22,4.95-7.47,5.56-12.75h5.1c-.56,6.7-2.96,12.04-7.19,16.02Z"/>
    <path class="cls-1" d="M458.52,85.65c2.79-5.58,7.31-8.37,13.55-8.37,4.52,0,7.93,1.23,10.24,3.69s3.46,5.97,3.46,10.54v25.88h-4.79v-25.27c0-7.21-3.35-10.81-10.05-10.81-4.21,0-7.32,1.43-9.32,4.3-2,2.87-3.01,6.58-3.01,11.15v20.63h-4.72v-54.19h4.72c0,12.99-.03,20.47-.08,22.45Z"/>
    <path class="cls-1" d="M529.07,117.16c-1.17.41-2.44.61-3.81.61-2.08,0-3.45-.63-4.11-1.9s-.99-3.02-.99-5.25c-3.3,5.23-8.22,7.84-14.77,7.84-4.01,0-7.14-.96-9.4-2.89-2.26-1.93-3.39-4.62-3.39-8.07,0-7.05,4.85-11.09,14.54-12.1.51-.05,1.22-.11,2.13-.19.91-.08,1.59-.14,2.02-.19.43-.05.99-.11,1.67-.19.68-.08,1.19-.14,1.52-.19.33-.05.74-.13,1.22-.23s.86-.2,1.14-.3c.28-.1.57-.22.88-.34.3-.13.58-.27.84-.42.91-.61,1.37-1.85,1.37-3.73,0-3.1-.86-5.28-2.59-6.55-1.73-1.27-4.26-1.9-7.61-1.9s-5.82.75-7.57,2.25c-1.75,1.5-2.78,3.82-3.08,6.96h-4.57c.2-4.21,1.67-7.46,4.41-9.74,2.74-2.28,6.52-3.42,11.34-3.42,4.47,0,7.98.96,10.54,2.89,2.56,1.93,3.84,4.72,3.84,8.37v21.31c0,1.01.03,1.74.08,2.17.05.43.27.84.65,1.22.38.38,1,.57,1.86.57.66,0,1.27-.08,1.83-.23v3.65ZM517.69,97.34c-1.04.33-1.99.57-2.85.72-.86.15-2.33.35-4.41.61-.51.05-.89.1-1.14.15-1.62.2-2.96.43-4,.68-1.04.25-2.23.67-3.58,1.26-1.34.58-2.36,1.4-3.04,2.44-.69,1.04-1.03,2.32-1.03,3.84,0,2.28.81,4.1,2.44,5.44,1.62,1.34,3.81,2.02,6.55,2.02,3.7,0,6.85-1.1,9.44-3.31,2.59-2.21,3.88-5.11,3.88-8.71v-6.39c-.46.51-1.21.93-2.25,1.26Z"/>
    <path class="cls-1" d="M557.69,89.69c-.46-5.68-3.98-8.52-10.58-8.52-2.79,0-5.01.58-6.66,1.75-1.65,1.17-2.47,2.74-2.47,4.72,0,.96.18,1.8.53,2.51.35.71.76,1.28,1.22,1.71.46.43,1.26.85,2.4,1.26,1.14.41,2.13.72,2.97.95.84.23,2.19.54,4.07.95,1.67.41,3.02.74,4.03.99,1.02.25,2.27.7,3.77,1.33,1.5.63,2.68,1.32,3.54,2.06.86.74,1.61,1.72,2.25,2.97s.95,2.65.95,4.22c0,3.6-1.43,6.51-4.3,8.71-2.87,2.21-6.61,3.31-11.23,3.31-5.02,0-8.93-1.22-11.72-3.65-2.79-2.44-4.24-5.89-4.34-10.35h4.64c0,3.25,1.02,5.73,3.04,7.46,2.03,1.73,4.87,2.59,8.52,2.59,3.2,0,5.77-.7,7.73-2.09,1.95-1.4,2.93-3.24,2.93-5.52,0-1.22-.32-2.28-.95-3.2s-1.48-1.64-2.55-2.17c-1.07-.53-2.12-.96-3.16-1.29-1.04-.33-2.14-.62-3.31-.88-.35-.05-.61-.1-.76-.15-.36-.1-1.17-.29-2.44-.57-1.27-.28-2.16-.48-2.66-.61-.51-.13-1.32-.37-2.44-.72s-1.93-.68-2.44-.99-1.15-.74-1.94-1.29-1.37-1.15-1.75-1.79c-.38-.63-.71-1.38-.99-2.25-.28-.86-.42-1.83-.42-2.89,0-3.4,1.28-6.09,3.84-8.07,2.56-1.98,6.08-2.97,10.54-2.97s8.04,1.07,10.73,3.2,4.03,5.23,4.03,9.29h-4.64Z"/>
    <path class="cls-1" d="M575.73,70.81h-4.79v-7.84h4.79v7.84ZM575.73,117.39h-4.79v-39.12h4.79v39.12Z"/>
    <path class="cls-1" d="M589.43,85.65c1.62-2.89,3.51-5.02,5.67-6.39,2.16-1.37,4.88-2.05,8.18-2.05,4.06,0,7.33,1.12,9.82,3.35s3.73,5.63,3.73,10.2v26.64h-4.79v-25.12c0-7.26-3.32-10.88-9.97-10.88-3.75,0-6.75,1.26-8.98,3.77s-3.35,6.2-3.35,11.07v21.16h-4.79v-39.12h4.49v7.38Z"/>
    <path class="cls-1" d="M659,115.26c0,11.67-5.83,17.5-17.51,17.5-4.77,0-8.55-1.03-11.34-3.08-2.79-2.06-4.31-4.96-4.57-8.71h4.79c.76,5.38,4.54,8.07,11.34,8.07,4.62,0,7.9-1.19,9.86-3.58s2.93-5.91,2.93-10.58v-6.55c-2.64,5.73-7.15,8.6-13.55,8.6-5.18,0-9.3-1.76-12.37-5.29-3.07-3.53-4.6-8.23-4.6-14.12s1.59-11.06,4.76-14.77c3.17-3.7,7.37-5.56,12.6-5.56,6.19,0,10.63,2.82,13.32,8.45v-7.38h4.34v36.99ZM632.24,85.58c-2.31,2.84-3.46,6.7-3.46,11.57s1.14,8.58,3.42,11.42,5.35,4.26,9.21,4.26,7.18-1.46,9.51-4.38,3.5-6.86,3.5-11.83c0-4.67-1.17-8.38-3.5-11.15s-5.46-4.15-9.36-4.15-7.01,1.42-9.32,4.26Z"/>
    <path class="cls-1" d="M443.82,183.99h-5.1v-26.18h-32.42v26.18h-5.18v-54.19h5.18v23.59h32.42v-23.59h5.1v54.19Z"/>
    <path class="cls-1" d="M483.97,149.36c3.32,3.75,4.99,8.83,4.99,15.22s-1.65,11.35-4.95,15.03-7.79,5.52-13.47,5.52-10.21-1.86-13.59-5.59c-3.37-3.73-5.06-8.77-5.06-15.11s1.69-11.31,5.06-15.07c3.37-3.75,7.9-5.63,13.59-5.63s10.11,1.88,13.43,5.63ZM460.49,152.29c-2.49,3.02-3.73,7.07-3.73,12.14s1.23,9.26,3.69,12.25c2.46,2.99,5.85,4.49,10.16,4.49s7.46-1.5,9.89-4.49c2.44-2.99,3.65-7.05,3.65-12.18s-1.24-9.2-3.73-12.22c-2.49-3.02-5.81-4.53-9.97-4.53s-7.48,1.51-9.97,4.53Z"/>
    <path class="cls-1" d="M516.21,149.13c-.2,0-.44-.01-.72-.04-.28-.03-.47-.04-.57-.04-2.94,0-5.57.85-7.88,2.55-2.31,1.7-3.84,3.95-4.6,6.74-.61,2.38-.91,5.61-.91,9.67v15.98h-4.72v-39.12h4.49v9.36c1.67-3.6,3.6-6.15,5.78-7.65,2.18-1.5,5.23-2.27,9.13-2.32v4.87Z"/>
    <path class="cls-1" d="M525.04,137.41h-4.79v-7.84h4.79v7.84ZM525.04,183.99h-4.79v-39.12h4.79v39.12Z"/>
    <path class="cls-1" d="M562.56,148.22l-25.88,31.74h26.94v4.03h-32.73v-3.88l25.42-31.21h-23.75v-4.03h29.99v3.35Z"/>
    <path class="cls-1" d="M599.59,149.36c3.32,3.75,4.99,8.83,4.99,15.22s-1.65,11.35-4.95,15.03-7.79,5.52-13.47,5.52-10.21-1.86-13.59-5.59c-3.37-3.73-5.06-8.77-5.06-15.11s1.69-11.31,5.06-15.07c3.37-3.75,7.9-5.63,13.59-5.63s10.11,1.88,13.43,5.63ZM576.11,152.29c-2.49,3.02-3.73,7.07-3.73,12.14s1.23,9.26,3.69,12.25c2.46,2.99,5.85,4.49,10.16,4.49s7.46-1.5,9.89-4.49c2.44-2.99,3.65-7.05,3.65-12.18s-1.24-9.2-3.73-12.22c-2.49-3.02-5.81-4.53-9.97-4.53s-7.48,1.51-9.97,4.53Z"/>
    <path class="cls-1" d="M616.3,152.25c1.62-2.89,3.51-5.02,5.67-6.39,2.16-1.37,4.88-2.06,8.18-2.06,4.06,0,7.33,1.12,9.82,3.35,2.49,2.23,3.73,5.63,3.73,10.2v26.64h-4.79v-25.12c0-7.26-3.32-10.88-9.97-10.88-3.75,0-6.75,1.26-8.98,3.77s-3.35,6.2-3.35,11.07v21.16h-4.8v-39.12h4.49v7.38Z"/>
    <path class="cls-1" d="M438.5,200.82h-19.03v49.78h-5.18v-49.78h-19.03v-4.42h43.23v4.42Z"/>
    <path class="cls-1" d="M464.26,215.96c3.32,3.75,4.99,8.83,4.99,15.22s-1.65,11.35-4.95,15.03-7.79,5.52-13.47,5.52-10.21-1.87-13.59-5.59c-3.37-3.73-5.06-8.76-5.06-15.11s1.69-11.32,5.06-15.07c3.37-3.75,7.9-5.63,13.59-5.63s10.11,1.88,13.43,5.63ZM440.78,218.89c-2.49,3.02-3.73,7.07-3.73,12.14s1.23,9.26,3.69,12.25c2.46,2.99,5.85,4.49,10.16,4.49s7.46-1.5,9.89-4.49c2.44-2.99,3.65-7.05,3.65-12.18s-1.24-9.2-3.73-12.22c-2.49-3.02-5.81-4.53-9.97-4.53s-7.48,1.51-9.97,4.53Z"/>
    <path class="cls-1" d="M508.07,250.59h-4.41v-7.23c-2.89,5.58-7.48,8.37-13.78,8.37-4.16,0-7.45-1.21-9.86-3.62s-3.62-5.95-3.62-10.62v-26.03h4.79v23.97c0,4.06.75,7.09,2.25,9.1,1.5,2,4.05,3.01,7.65,3.01,3.81,0,6.8-1.38,8.98-4.15,2.18-2.77,3.27-6.2,3.27-10.31v-21.62h4.72v39.12Z"/>
    <path class="cls-1" d="M537.37,215.73c-.2,0-.44-.01-.72-.04-.28-.03-.47-.04-.57-.04-2.94,0-5.57.85-7.88,2.55-2.31,1.7-3.84,3.95-4.6,6.74-.61,2.38-.91,5.61-.91,9.67v15.98h-4.72v-39.12h4.49v9.36c1.67-3.6,3.6-6.15,5.78-7.65,2.18-1.5,5.23-2.27,9.13-2.32v4.87Z"/>
    <path class="cls-1" d="M564.77,222.89c-.46-5.68-3.98-8.52-10.58-8.52-2.79,0-5.01.58-6.66,1.75-1.65,1.17-2.47,2.74-2.47,4.72,0,.96.18,1.8.53,2.51.35.71.76,1.28,1.22,1.71.46.43,1.26.85,2.4,1.26,1.14.41,2.13.72,2.97.95.84.23,2.19.54,4.07.95,1.67.41,3.02.74,4.03.99,1.02.25,2.27.7,3.77,1.33,1.5.63,2.68,1.32,3.54,2.06.86.74,1.61,1.72,2.25,2.97s.95,2.65.95,4.22c0,3.6-1.43,6.51-4.3,8.71-2.87,2.21-6.61,3.31-11.23,3.31-5.02,0-8.93-1.22-11.72-3.65-2.79-2.44-4.24-5.89-4.34-10.35h4.64c0,3.25,1.02,5.73,3.04,7.46,2.03,1.73,4.87,2.59,8.52,2.59,3.2,0,5.77-.7,7.73-2.09,1.95-1.4,2.93-3.24,2.93-5.52,0-1.22-.32-2.28-.95-3.2s-1.48-1.64-2.55-2.17c-1.07-.53-2.12-.96-3.16-1.29-1.04-.33-2.14-.62-3.31-.88-.35-.05-.61-.1-.76-.15-.36-.1-1.17-.29-2.44-.57-1.27-.28-2.16-.48-2.66-.61-.51-.13-1.32-.37-2.44-.72s-1.93-.68-2.44-.99-1.15-.74-1.94-1.29-1.37-1.15-1.75-1.79c-.38-.63-.71-1.38-.99-2.25-.28-.86-.42-1.83-.42-2.89,0-3.4,1.28-6.09,3.84-8.07,2.56-1.98,6.08-2.97,10.54-2.97s8.04,1.07,10.73,3.2,4.03,5.23,4.03,9.29h-4.64Z"/>
    <path class="cls-1" d="M633.42,250.36c-1.17.41-2.44.61-3.81.61-2.08,0-3.45-.63-4.11-1.9s-.99-3.02-.99-5.25c-3.3,5.23-8.22,7.84-14.77,7.84-4.01,0-7.14-.96-9.4-2.89-2.26-1.93-3.39-4.62-3.39-8.07,0-7.05,4.85-11.09,14.54-12.1.51-.05,1.22-.11,2.13-.19.91-.08,1.59-.14,2.02-.19.43-.05.99-.11,1.67-.19.68-.08,1.19-.14,1.52-.19.33-.05.74-.13,1.22-.23s.86-.2,1.14-.3c.28-.1.57-.22.88-.34.3-.13.58-.27.84-.42.91-.61,1.37-1.85,1.37-3.73,0-3.1-.86-5.28-2.59-6.55-1.73-1.27-4.26-1.9-7.61-1.9s-5.82.75-7.57,2.25c-1.75,1.5-2.78,3.82-3.08,6.96h-4.57c.2-4.21,1.67-7.46,4.41-9.74,2.74-2.28,6.52-3.42,11.34-3.42,4.47,0,7.98.96,10.54,2.89,2.56,1.93,3.84,4.72,3.84,8.37v21.31c0,1.01.03,1.74.08,2.17.05.43.27.84.65,1.22.38.38,1,.57,1.86.57.66,0,1.27-.08,1.83-.23v3.65ZM622.04,230.54c-1.04.33-1.99.57-2.85.72-.86.15-2.33.35-4.41.61-.51.05-.89.1-1.14.15-1.62.2-2.96.43-4,.68-1.04.25-2.23.67-3.58,1.26-1.34.58-2.36,1.4-3.04,2.44-.69,1.04-1.03,2.32-1.03,3.84,0,2.28.81,4.1,2.44,5.44,1.62,1.34,3.81,2.02,6.55,2.02,3.7,0,6.85-1.1,9.44-3.31,2.59-2.21,3.88-5.11,3.88-8.71v-6.39c-.46.51-1.21.93-2.25,1.26Z"/>
    <path class="cls-1" d="M643.09,218.85c1.62-2.89,3.51-5.02,5.67-6.39s4.88-2.05,8.18-2.05c4.06,0,7.33,1.12,9.82,3.35s3.73,5.63,3.73,10.2v26.64h-4.79v-25.12c0-7.26-3.32-10.88-9.97-10.88-3.75,0-6.75,1.26-8.98,3.77-2.23,2.51-3.35,6.2-3.35,11.07v21.16h-4.79v-39.12h4.49v7.38Z"/>
    <path class="cls-1" d="M713.87,250.59h-4.34v-7.69c-1.17,2.89-2.98,5.09-5.44,6.58-2.46,1.5-5.34,2.25-8.64,2.25-5.43,0-9.73-1.87-12.9-5.59-3.17-3.73-4.76-8.76-4.76-15.11s1.58-11.32,4.76-15.07c3.17-3.75,7.42-5.63,12.75-5.63,6.8,0,11.44,2.82,13.93,8.45v-22.38h4.64v54.19ZM686.21,218.82c-2.41,3.02-3.62,7.07-3.62,12.14s1.21,9.29,3.62,12.33c2.41,3.04,5.64,4.57,9.7,4.57s7.45-1.5,9.86-4.49c2.41-2.99,3.62-7.1,3.62-12.33,0-4.67-1.14-8.63-3.42-11.87-2.28-3.25-5.66-4.87-10.12-4.87-4.01,0-7.22,1.51-9.63,4.53Z"/>
    <path class="cls-1" d="M782.53,200.82h-19.03v49.78h-5.17v-49.78h-19.03v-4.42h43.23v4.42Z"/>
    <path class="cls-1" d="M799.65,215.73c-.2,0-.44-.01-.72-.04-.28-.03-.47-.04-.57-.04-2.94,0-5.57.85-7.88,2.55-2.31,1.7-3.84,3.95-4.6,6.74-.61,2.38-.91,5.61-.91,9.67v15.98h-4.72v-39.12h4.49v9.36c1.67-3.6,3.6-6.15,5.78-7.65,2.18-1.5,5.23-2.27,9.13-2.32v4.87Z"/>
    <path class="cls-1" d="M837.94,250.36c-1.17.41-2.44.61-3.81.61-2.08,0-3.45-.63-4.11-1.9-.66-1.27-.99-3.02-.99-5.25-3.3,5.23-8.22,7.84-14.77,7.84-4.01,0-7.14-.96-9.4-2.89-2.26-1.93-3.39-4.62-3.39-8.07,0-7.05,4.85-11.09,14.54-12.1.51-.05,1.22-.11,2.13-.19.91-.08,1.59-.14,2.02-.19.43-.05.99-.11,1.67-.19.69-.08,1.19-.14,1.52-.19s.74-.13,1.22-.23.86-.2,1.14-.3.57-.22.88-.34c.3-.13.58-.27.84-.42.91-.61,1.37-1.85,1.37-3.73,0-3.1-.86-5.28-2.59-6.55-1.73-1.27-4.26-1.9-7.61-1.9s-5.82.75-7.57,2.25c-1.75,1.5-2.78,3.82-3.08,6.96h-4.57c.2-4.21,1.67-7.46,4.42-9.74s6.52-3.42,11.34-3.42c4.47,0,7.98.96,10.54,2.89,2.56,1.93,3.84,4.72,3.84,8.37v21.31c0,1.01.03,1.74.08,2.17.05.43.27.84.65,1.22.38.38,1,.57,1.87.57.66,0,1.27-.08,1.83-.23v3.65ZM826.56,230.54c-1.04.33-1.99.57-2.85.72-.86.15-2.33.35-4.42.61-.51.05-.89.1-1.14.15-1.62.2-2.96.43-4,.68-1.04.25-2.23.67-3.58,1.26-1.34.58-2.36,1.4-3.04,2.44-.68,1.04-1.03,2.32-1.03,3.84,0,2.28.81,4.1,2.44,5.44s3.81,2.02,6.55,2.02c3.7,0,6.85-1.1,9.44-3.31s3.88-5.11,3.88-8.71v-6.39c-.46.51-1.21.93-2.25,1.26Z"/>
    <path class="cls-1" d="M859.1,250.59h-5.18l-15.07-39.12h5.1l9.13,23.82c.71,1.93,1.9,5.46,3.58,10.58,1.52-4.87,2.71-8.52,3.58-10.96l8.45-23.44h4.79l-14.38,39.12Z"/>
    <path class="cls-1" d="M905.3,248.12c-2.89,2.51-6.6,3.77-11.11,3.77-5.43,0-9.78-1.85-13.05-5.56s-4.91-8.65-4.91-14.84,1.66-11.25,4.99-15.18,7.62-5.9,12.9-5.9,9.78,1.95,12.75,5.86c2.97,3.91,4.45,8.75,4.45,14.54v1.37h-30.22c0,4.52,1.1,8.28,3.31,11.3,2.21,3.02,5.52,4.53,9.93,4.53,6.44,0,10.43-3.42,11.95-10.28h4.64c-.86,4.42-2.74,7.88-5.63,10.39ZM902.79,218.05c-2.23-2.46-5.18-3.69-8.83-3.69-3.96,0-6.96,1.29-9.02,3.88s-3.34,5.94-3.84,10.05h25.42c-.25-4.36-1.5-7.78-3.73-10.24Z"/>
    <path class="cls-1" d="M922.73,250.59h-4.72v-54.19h4.72v54.19Z"/>
    <path class="cls-1" d="M955.38,222.89c-.46-5.68-3.98-8.52-10.58-8.52-2.79,0-5.01.58-6.66,1.75-1.65,1.17-2.47,2.74-2.47,4.72,0,.96.18,1.8.53,2.51.35.71.76,1.28,1.22,1.71.46.43,1.26.85,2.4,1.26,1.14.41,2.13.72,2.97.95.84.23,2.2.54,4.07.95,1.67.41,3.02.74,4.03.99,1.01.25,2.27.7,3.77,1.33,1.5.63,2.68,1.32,3.54,2.06.86.74,1.61,1.72,2.25,2.97.63,1.24.95,2.65.95,4.22,0,3.6-1.43,6.51-4.3,8.71-2.87,2.21-6.61,3.31-11.23,3.31-5.02,0-8.93-1.22-11.72-3.65-2.79-2.44-4.24-5.89-4.34-10.35h4.64c0,3.25,1.01,5.73,3.04,7.46,2.03,1.73,4.87,2.59,8.52,2.59,3.2,0,5.77-.7,7.72-2.09,1.95-1.4,2.93-3.24,2.93-5.52,0-1.22-.32-2.28-.95-3.2-.63-.91-1.48-1.64-2.55-2.17-1.07-.53-2.12-.96-3.16-1.29-1.04-.33-2.14-.62-3.31-.88-.36-.05-.61-.1-.76-.15-.36-.1-1.17-.29-2.44-.57s-2.16-.48-2.66-.61c-.51-.13-1.32-.37-2.44-.72s-1.93-.68-2.44-.99-1.15-.74-1.94-1.29c-.79-.56-1.37-1.15-1.75-1.79-.38-.63-.71-1.38-.99-2.25-.28-.86-.42-1.83-.42-2.89,0-3.4,1.28-6.09,3.84-8.07,2.56-1.98,6.08-2.97,10.54-2.97s8.04,1.07,10.73,3.2c2.69,2.13,4.03,5.23,4.03,9.29h-4.64Z"/>
  </g>
</svg>