<svg width="252" height="84" viewBox="0 0 252 84" fill="none" xmlns="http://www.w3.org/2000/svg">
<g clip-path="url(#clip0_42_693)">
<path d="M0.444458 8.37769C1.88356 10.8686 3.14736 13.4538 4.35882 16.0573C5.01296 17.5252 5.7142 18.8832 6.75297 20.0658C8.63951 22.2978 11.2875 23.852 14.1552 24.3544C14.5503 24.4355 15.16 24.4957 15.5655 24.5297C16.0548 24.5454 16.5834 24.5585 17.0753 24.548C18.9958 24.5244 20.9164 24.5192 22.8369 24.5558C27.1804 24.6108 31.4768 26.6962 34.1143 30.1527C36.3802 33.0701 37.4609 37.0002 36.6079 40.5979H36.4404C36.0165 38.9233 35.4644 37.4241 34.6088 35.9797C32.3036 31.9947 27.9758 29.2552 23.3602 29.1793C20.9661 29.1924 18.5641 29.2369 16.1699 29.161C14.1918 29.0956 12.2085 28.6167 10.4083 27.8056C5.86858 25.681 2.87524 21.7614 1.98299 16.8553C1.37072 14.0504 0.808159 11.2323 0.444458 8.37769Z" fill="white"/>
<path d="M74.124 0.666748C74.752 2.81232 75.2413 4.97621 75.6913 7.15842C76.0629 8.85395 76.3585 10.5966 76.3088 12.3418C76.2042 15.5262 75.393 18.9538 72.9727 21.2015C71.947 22.1696 70.6989 22.8473 69.3802 23.2999C68.4749 23.6218 67.5879 23.7971 66.6668 23.9698C65.3245 24.2157 63.9535 24.4643 62.6086 24.6867C61.9492 24.7966 60.6304 24.9929 59.992 25.1498C56.0201 26.1206 52.7546 28.9412 51.012 32.6908C50.1616 34.5197 49.7403 36.4089 49.5676 38.455L49.4028 38.4838C47.4796 34.1011 48.7722 28.5304 52.0037 24.9981C53.8928 22.8551 56.4727 21.2983 59.2437 20.5892C60.0653 20.3694 60.9915 20.2307 61.8262 20.079C62.9095 19.8906 63.9927 19.7126 65.0812 19.5426C66.7872 19.2757 68.7705 19.0821 70.1652 17.9831C71.5833 16.8815 72.2322 15.1834 72.7843 13.4617C73.3024 11.7531 73.5196 9.94243 73.5484 8.15271C73.6609 5.65128 73.8048 3.15509 74.1266 0.666748L74.124 0.666748Z" fill="white"/>
<path d="M40.1088 40.6894C36.3462 45.4019 37.7434 52.668 43.3717 55.002C44.277 55.3448 47.4875 56.4934 48.4138 56.8414C48.7696 56.9827 49.1412 57.1371 49.4892 57.2967C49.7927 57.4563 50.2637 57.684 50.5489 57.8724C51.2344 58.2753 51.9147 58.8012 52.4982 59.3376C53.8536 60.6014 54.9107 62.2001 55.5569 63.9375C57.5534 69.2753 55.6276 75.0056 50.6561 77.8628C49.8659 78.2972 49.0679 78.6635 48.2254 78.9278C47.7675 79.0848 46.9877 79.2862 46.5246 79.4301C44.6668 79.9613 42.6155 80.5631 40.7577 81.0603C38.1856 81.7641 35.6057 82.4418 32.997 83.0541L32.9395 82.9049C36.4273 80.9163 39.9701 79.0795 43.5365 77.2532C44.1488 76.9497 45.6245 76.1987 46.2106 75.9083C46.9747 75.5419 47.7334 75.0814 48.3562 74.5293C49.1228 73.8229 49.7456 73.0013 50.1773 72.0619C51.0172 70.2722 51.3443 68.2104 51.0146 66.2558C50.7189 64.5184 49.777 62.9118 48.4242 61.7841C48.2489 61.6533 47.9873 61.4282 47.8015 61.3184C47.5477 61.1404 47.2232 60.952 46.9511 60.8055C46.8124 60.7218 46.454 60.5569 46.3074 60.4811C45.5931 60.12 42.4088 58.5527 41.7677 58.1863C40.0957 57.2287 38.6592 55.8367 37.6676 54.1856C35.7732 51.0327 35.5455 46.9168 37.2934 43.6618C37.9371 42.4294 38.845 41.3514 39.9283 40.5037L40.1114 40.6868L40.1088 40.6894Z" fill="white"/>
<path d="M48.3222 43.2407C48.4687 46.323 50.4494 49.1881 53.3538 50.2059C55.1592 50.8522 56.9385 50.6926 58.7073 49.9233L61.821 48.7616L62.0198 48.6909C62.3077 48.6151 62.5589 48.5078 62.8676 48.4581C64.2858 48.1284 65.8557 48.4633 66.9233 49.4942C67.6036 50.1274 68.1138 51.0328 68.4618 51.8544C68.9119 52.8722 69.1971 53.8586 69.6733 54.7142C70.0579 55.3893 70.4242 55.7085 71.0993 55.8891C73.6714 56.4281 76.1021 57.5454 78.3367 58.9086C81.5106 60.8187 84.1585 63.4117 86.0607 66.5489C86.5527 67.4045 87.0158 68.302 87.3873 69.21L87.2539 69.2963C85.7651 67.6243 84.1088 66.1983 82.3557 64.9973C82.1045 64.8377 81.5838 64.5106 81.3483 64.3589C81.1521 64.2464 80.5294 63.8931 80.32 63.7728C79.9066 63.5687 79.3284 63.2599 78.9149 63.082L78.2059 62.7628C77.9442 62.6581 77.3712 62.4409 77.1226 62.3415C76.908 62.2735 76.2513 62.0563 76.0236 61.983C75.0765 61.7161 74.0168 61.4807 73.0382 61.3394C72.3265 61.2242 71.5206 61.13 70.801 61.0515C70.2908 60.9914 69.7492 60.9129 69.2546 60.7585C67.3393 60.2352 65.8426 58.6391 65.1309 56.9069C64.6286 55.774 64.3669 54.6044 64.0503 53.5525C63.9221 53.1025 63.7703 52.8199 63.7363 52.71C63.7363 52.71 63.7415 52.71 63.7468 52.7074C63.752 52.6995 63.7572 52.7074 63.7677 52.71C63.7756 52.7152 63.7913 52.7074 63.7991 52.71C63.8148 52.723 63.8488 52.7047 63.8488 52.71C63.8514 52.71 63.8593 52.7021 63.8593 52.6943C63.8514 52.6943 63.8436 52.689 63.8357 52.6838C63.8331 52.6629 63.7756 52.6707 63.7363 52.6576C63.6395 52.6367 63.438 52.6576 63.3229 52.6812C61.855 52.9507 59.4033 53.6336 57.8909 53.7958C54.649 54.1229 51.3181 52.6472 49.4473 49.9992C48.0422 48.0682 47.4901 45.5354 48.0605 43.2197L48.3196 43.2433L48.3222 43.2407Z" fill="white"/>
<path d="M42.3922 27.1285C45.4753 25.7118 46.5068 21.3688 44.696 17.4283C42.8852 13.4877 38.9179 11.4418 35.8348 12.8585C32.7517 14.2753 31.7203 18.6183 33.531 22.5588C35.3418 26.4994 39.3091 28.5453 42.3922 27.1285Z" fill="white"/>
<path d="M115.468 30.137C114.359 31.1784 112.956 31.6991 111.256 31.6991C109.29 31.6991 107.718 31.0292 106.535 29.6869C105.353 28.3447 104.764 26.5549 104.764 24.3099C104.764 22.2114 105.353 20.4453 106.527 19.0114C107.702 17.5775 109.319 16.8606 111.376 16.8606C112.81 16.8606 114.094 17.2819 115.23 18.1244C116.366 18.9669 117.012 20.079 117.172 21.4605H115.816C115.604 20.4113 115.091 19.5792 114.283 18.9617C113.474 18.3442 112.491 18.0354 111.337 18.0354C109.769 18.0354 108.506 18.6085 107.543 19.7571C106.58 20.9058 106.098 22.4234 106.098 24.3073C106.098 26.1912 106.572 27.7036 107.522 28.8392C108.472 29.9748 109.73 30.5426 111.295 30.5426C112.663 30.5426 113.752 30.1213 114.56 29.2788C115.371 28.4362 115.855 27.3242 116.015 25.9427H117.349C117.203 27.6957 116.575 29.093 115.468 30.1344V30.137Z" fill="white"/>
<path d="M120.419 23.0773C121.149 21.6173 122.331 20.8872 123.964 20.8872C125.147 20.8872 126.039 21.2091 126.644 21.8527C127.248 22.4964 127.549 23.4148 127.549 24.6106V31.3822H126.296V24.7702C126.296 22.8837 125.419 21.9417 123.666 21.9417C122.564 21.9417 121.751 22.3159 121.227 23.0668C120.704 23.8178 120.44 24.7885 120.44 25.9843V31.3822H119.205V17.2031H120.44C120.44 20.602 120.432 22.5592 120.419 23.0773Z" fill="white"/>
<path d="M138.879 31.3223C138.572 31.4296 138.24 31.482 137.882 31.482C137.337 31.482 136.979 31.3171 136.806 30.9848C136.634 30.6525 136.547 30.1946 136.547 29.6111C135.684 30.9796 134.396 31.6625 132.683 31.6625C131.633 31.6625 130.814 31.4113 130.223 30.9063C129.632 30.4013 129.336 29.6975 129.336 28.7948C129.336 26.9501 130.605 25.893 133.14 25.6287C133.274 25.6156 133.46 25.5999 133.698 25.579C133.936 25.5581 134.114 25.5424 134.226 25.5293C134.339 25.5162 134.485 25.5005 134.663 25.4796C134.841 25.4586 134.975 25.4429 135.061 25.4299C135.147 25.4168 135.255 25.3958 135.38 25.3697C135.506 25.3435 135.605 25.3174 135.678 25.2912C135.752 25.265 135.828 25.2336 135.909 25.2022C135.987 25.1682 136.06 25.1316 136.129 25.0923C136.367 24.9327 136.487 24.6083 136.487 24.1164C136.487 23.3052 136.262 22.7348 135.809 22.4025C135.357 22.0702 134.695 21.9054 133.818 21.9054C132.942 21.9054 132.295 22.1016 131.837 22.4941C131.379 22.8866 131.11 23.4936 131.031 24.3152H129.836C129.888 23.2136 130.273 22.3633 130.99 21.7667C131.707 21.1701 132.696 20.8718 133.957 20.8718C135.126 20.8718 136.045 21.123 136.715 21.628C137.384 22.133 137.719 22.863 137.719 23.8181V29.3939C137.719 29.6582 137.727 29.8492 137.74 29.9617C137.753 30.0742 137.811 30.1815 137.91 30.281C138.01 30.3804 138.172 30.4301 138.397 30.4301C138.57 30.4301 138.729 30.4092 138.876 30.3699V31.325L138.879 31.3223ZM135.901 26.1363C135.629 26.2227 135.38 26.2855 135.155 26.3247C134.93 26.364 134.545 26.4163 134.001 26.4843C133.868 26.4974 133.768 26.5105 133.703 26.5236C133.279 26.5759 132.928 26.6361 132.656 26.7015C132.384 26.7669 132.073 26.8768 131.72 27.0312C131.369 27.183 131.102 27.3975 130.924 27.6696C130.744 27.9418 130.655 28.2767 130.655 28.6744C130.655 29.271 130.867 29.7472 131.293 30.0978C131.717 30.4484 132.29 30.6263 133.007 30.6263C133.975 30.6263 134.799 30.3385 135.477 29.7603C136.155 29.182 136.492 28.4232 136.492 27.4812V25.8093C136.372 25.9427 136.176 26.0526 135.903 26.1389L135.901 26.1363Z" fill="white"/>
<path d="M146.367 24.1346C146.247 22.6484 145.326 21.9053 143.599 21.9053C142.869 21.9053 142.288 22.0571 141.856 22.3632C141.424 22.6693 141.21 23.0801 141.21 23.5982C141.21 23.8494 141.257 24.0692 141.349 24.255C141.44 24.4407 141.547 24.5899 141.668 24.7024C141.788 24.8149 141.997 24.9248 142.296 25.0321C142.594 25.1394 142.853 25.2205 143.073 25.2807C143.293 25.3408 143.646 25.4219 144.138 25.5292C144.575 25.6365 144.928 25.7228 145.192 25.7883C145.459 25.8537 145.786 25.9714 146.179 26.1363C146.571 26.3011 146.88 26.4817 147.105 26.6753C147.33 26.8689 147.526 27.1253 147.694 27.4524C147.861 27.7795 147.942 28.1458 147.942 28.5566C147.942 29.4985 147.568 30.26 146.817 30.8356C146.066 31.4139 145.088 31.7017 143.879 31.7017C142.565 31.7017 141.542 31.3825 140.812 30.7466C140.082 30.1082 139.703 29.2055 139.677 28.0385H140.891C140.891 28.8889 141.158 29.5378 141.686 29.9904C142.217 30.4431 142.96 30.6681 143.915 30.6681C144.753 30.6681 145.425 30.485 145.938 30.1213C146.448 29.755 146.705 29.2735 146.705 28.6769C146.705 28.3577 146.621 28.0804 146.456 27.8396C146.291 27.5989 146.069 27.4105 145.789 27.2718C145.509 27.1332 145.234 27.0207 144.962 26.9343C144.69 26.848 144.402 26.7721 144.096 26.7041C144.004 26.691 143.936 26.6779 143.897 26.6648C143.803 26.6386 143.591 26.5889 143.259 26.5157C142.926 26.4424 142.693 26.3901 142.563 26.3561C142.429 26.322 142.217 26.2592 141.924 26.1677C141.631 26.0761 141.419 25.9897 141.286 25.9086C141.152 25.8275 140.985 25.715 140.778 25.5711C140.571 25.4272 140.42 25.2702 140.32 25.1027C140.221 24.9379 140.134 24.7416 140.061 24.514C139.988 24.289 139.951 24.0352 139.951 23.7578C139.951 22.8682 140.286 22.1643 140.956 21.6463C141.626 21.1282 142.547 20.8691 143.714 20.8691C144.881 20.8691 145.818 21.1491 146.521 21.7064C147.225 22.2638 147.576 23.0749 147.576 24.1372H146.362L146.367 24.1346Z" fill="white"/>
<path d="M151.087 19.1947H149.834V17.1433H151.087V19.1947ZM151.087 31.3826H149.834V21.1466H151.087V31.3826Z" fill="white"/>
<path d="M154.672 23.0775C155.096 22.3213 155.59 21.764 156.156 21.4055C156.721 21.0471 157.432 20.8691 158.296 20.8691C159.358 20.8691 160.214 21.1622 160.865 21.7457C161.517 22.3292 161.841 23.2188 161.841 24.4146V31.3851H160.588V24.8123C160.588 22.9127 159.719 21.9655 157.979 21.9655C156.998 21.9655 156.213 22.2952 155.63 22.9519C155.046 23.6087 154.753 24.5742 154.753 25.8484V31.3851H153.5V21.1491H154.675V23.0801L154.672 23.0775Z" fill="white"/>
<path d="M172.875 30.8252C172.875 33.8788 171.35 35.4042 168.294 35.4042C167.046 35.4042 166.057 35.1347 165.327 34.5983C164.597 34.0593 164.199 33.3005 164.131 32.3193H165.384C165.583 33.727 166.572 34.4308 168.351 34.4308C169.56 34.4308 170.418 34.1195 170.931 33.4941C171.444 32.8688 171.698 31.9477 171.698 30.7258V29.012C171.007 30.5112 169.827 31.2622 168.153 31.2622C166.797 31.2622 165.719 30.8017 164.916 29.878C164.113 28.9544 163.712 27.7246 163.712 26.1835C163.712 24.6423 164.128 23.2896 164.958 22.3188C165.787 21.3507 166.886 20.864 168.255 20.864C169.874 20.864 171.036 21.6019 171.74 23.075V21.144H172.875V30.8226V30.8252ZM165.873 23.0593C165.269 23.8024 164.968 24.8124 164.968 26.0867C164.968 27.3609 165.266 28.3317 165.863 29.0748C166.46 29.8179 167.263 30.1894 168.273 30.1894C169.283 30.1894 170.152 29.8074 170.761 29.0434C171.371 28.2793 171.677 27.2484 171.677 25.948C171.677 24.726 171.371 23.7553 170.761 23.0305C170.152 22.3057 169.333 21.9446 168.312 21.9446C167.292 21.9446 166.478 22.3162 165.873 23.0593Z" fill="white"/>
<path d="M116.572 48.8087H115.238V41.9586H106.755V48.8087H105.4V34.6296H106.755V40.8021H115.238V34.6296H116.572V48.8087Z" fill="white"/>
<path d="M127.078 39.7475C127.947 40.7287 128.384 42.058 128.384 43.7299C128.384 45.4019 127.952 46.6997 127.088 47.6626C126.225 48.6255 125.05 49.107 123.564 49.107C122.078 49.107 120.892 48.6203 120.008 47.6443C119.126 46.6683 118.684 45.3496 118.684 43.6907C118.684 42.0318 119.126 40.7314 120.008 39.7475C120.89 38.7663 122.075 38.2744 123.564 38.2744C125.053 38.2744 126.209 38.7663 127.078 39.7475ZM120.934 40.5142C120.283 41.3044 119.958 42.3641 119.958 43.6907C119.958 45.0173 120.28 46.1136 120.924 46.896C121.567 47.6783 122.454 48.0708 123.582 48.0708C124.71 48.0708 125.534 47.6783 126.17 46.896C126.808 46.1136 127.125 45.0513 127.125 43.709C127.125 42.3667 126.801 41.3018 126.149 40.5116C125.497 39.7214 124.629 39.3263 123.54 39.3263C122.452 39.3263 121.583 39.7214 120.932 40.5116L120.934 40.5142Z" fill="white"/>
<path d="M135.514 39.6874C135.461 39.6874 135.398 39.6847 135.325 39.6769C135.252 39.669 135.202 39.6664 135.176 39.6664C134.407 39.6664 133.719 39.8888 133.114 40.3336C132.51 40.7785 132.109 41.3672 131.911 42.0972C131.751 42.7199 131.673 43.5651 131.673 44.6274V48.8087H130.438V38.5727H131.612V41.0218C132.049 40.0798 132.554 39.4126 133.125 39.0201C133.695 38.6276 134.493 38.4262 135.514 38.4131V39.6874Z" fill="white"/>
<path d="M137.824 36.621H136.571V34.5696H137.824V36.621ZM137.824 48.8089H136.571V38.5729H137.824V48.8089Z" fill="white"/>
<path d="M147.641 39.4493L140.87 47.7542H147.919V48.8087H139.355V47.7935L146.006 39.6272H139.792V38.5728H147.639V39.4493H147.641Z" fill="white"/>
<path d="M157.33 39.7475C158.199 40.7287 158.636 42.058 158.636 43.7299C158.636 45.4019 158.204 46.6997 157.341 47.6626C156.477 48.6255 155.303 49.107 153.816 49.107C152.33 49.107 151.145 48.6203 150.26 47.6443C149.379 46.6683 148.937 45.3496 148.937 43.6907C148.937 42.0318 149.379 40.7314 150.26 39.7475C151.142 38.7663 152.328 38.2744 153.816 38.2744C155.305 38.2744 156.462 38.7663 157.33 39.7475ZM151.187 40.5142C150.535 41.3044 150.211 42.3641 150.211 43.6907C150.211 45.0173 150.533 46.1136 151.176 46.896C151.82 47.6783 152.707 48.0708 153.835 48.0708C154.962 48.0708 155.787 47.6783 156.422 46.896C157.061 46.1136 157.378 45.0513 157.378 43.709C157.378 42.3667 157.053 41.3018 156.402 40.5116C155.75 39.7214 154.881 39.3263 153.793 39.3263C152.704 39.3263 151.836 39.7214 151.184 40.5116L151.187 40.5142Z" fill="white"/>
<path d="M161.703 40.5037C162.127 39.7475 162.621 39.1902 163.186 38.8317C163.751 38.4733 164.463 38.2927 165.327 38.2927C166.389 38.2927 167.245 38.5858 167.896 39.1693C168.548 39.7528 168.872 40.6424 168.872 41.8382V48.8087H167.619V42.2359C167.619 40.3363 166.75 39.3891 165.01 39.3891C164.029 39.3891 163.244 39.7187 162.66 40.3755C162.077 41.0323 161.784 41.9978 161.784 43.272V48.8087H160.528V38.5727H161.703V40.5037Z" fill="white"/>
<path d="M115.18 53.2124H110.201V66.2376H108.846V53.2124H103.866V52.0559H115.178V53.2124H115.18Z" fill="white"/>
<path d="M121.921 57.1738C122.789 58.155 123.226 59.4842 123.226 61.1562C123.226 62.8282 122.795 64.126 121.931 65.0889C121.068 66.0518 119.893 66.5332 118.407 66.5332C116.92 66.5332 115.735 66.0439 114.851 65.0706C113.969 64.0946 113.527 62.7785 113.527 61.117C113.527 59.4554 113.969 58.155 114.851 57.1738C115.732 56.1926 116.918 55.7007 118.407 55.7007C119.895 55.7007 121.052 56.1926 121.921 57.1738ZM115.777 57.9405C115.125 58.7307 114.801 59.7904 114.801 61.117C114.801 62.4435 115.123 63.5399 115.767 64.3222C116.41 65.1046 117.297 65.4971 118.425 65.4971C119.553 65.4971 120.377 65.1046 121.013 64.3222C121.651 63.5399 121.968 62.4776 121.968 61.1353C121.968 59.793 121.643 58.728 120.992 57.9378C120.34 57.1476 119.472 56.7525 118.383 56.7525C117.295 56.7525 116.426 57.1476 115.774 57.9378L115.777 57.9405Z" fill="white"/>
<path d="M133.384 66.2349H132.23V64.3431C131.474 65.8032 130.273 66.5332 128.624 66.5332C127.536 66.5332 126.675 66.2166 126.044 65.586C125.414 64.9554 125.097 64.0292 125.097 62.8072V55.9963H126.35V62.2682C126.35 63.3305 126.547 64.1234 126.939 64.6493C127.332 65.1726 127.999 65.4369 128.941 65.4369C129.938 65.4369 130.72 65.0758 131.29 64.351C131.861 63.6262 132.146 62.7287 132.146 61.6533V55.9963H133.381V66.2323L133.384 66.2349Z" fill="white"/>
<path d="M141.05 57.1136C140.998 57.1136 140.935 57.111 140.862 57.1032C140.789 57.0953 140.739 57.0927 140.713 57.0927C139.943 57.0927 139.255 57.3151 138.651 57.7599C138.046 58.2047 137.646 58.7934 137.447 59.5235C137.288 60.1462 137.209 60.9914 137.209 62.0537V66.2349H135.974V55.999H137.149V58.4481C137.586 57.5061 138.091 56.8389 138.661 56.4464C139.232 56.0539 140.03 55.8524 141.05 55.8394V57.1136Z" fill="white"/>
<path d="M148.22 58.9871C148.099 57.5009 147.178 56.7578 145.451 56.7578C144.721 56.7578 144.14 56.9096 143.709 57.2157C143.277 57.5219 143.062 57.9327 143.062 58.4507C143.062 58.7019 143.109 58.9217 143.201 59.1075C143.293 59.2933 143.4 59.4424 143.52 59.5549C143.641 59.6674 143.85 59.7773 144.148 59.8846C144.447 59.9919 144.706 60.073 144.925 60.1332C145.145 60.1934 145.498 60.2745 145.99 60.3818C146.427 60.489 146.78 60.5754 147.045 60.6408C147.312 60.7062 147.639 60.824 148.031 60.9888C148.424 61.1536 148.732 61.3342 148.957 61.5278C149.182 61.7214 149.379 61.9779 149.546 62.3049C149.714 62.632 149.795 62.9983 149.795 63.4091C149.795 64.3511 149.421 65.1125 148.67 65.6881C147.919 66.2664 146.94 66.5542 145.731 66.5542C144.418 66.5542 143.395 66.235 142.665 65.5992C141.935 64.9607 141.555 64.058 141.529 62.891H142.743C142.743 63.7414 143.01 64.3903 143.539 64.843C144.07 65.2957 144.813 65.5207 145.768 65.5207C146.605 65.5207 147.278 65.3375 147.79 64.9738C148.301 64.6075 148.557 64.1261 148.557 63.5295C148.557 63.2103 148.473 62.9329 148.309 62.6922C148.144 62.4515 147.921 62.2631 147.641 62.1244C147.361 61.9857 147.087 61.8732 146.814 61.7869C146.542 61.7005 146.255 61.6246 145.948 61.5566C145.857 61.5435 145.789 61.5304 145.75 61.5173C145.655 61.4912 145.443 61.4415 145.111 61.3682C144.779 61.2949 144.546 61.2426 144.415 61.2086C144.282 61.1746 144.07 61.1118 143.777 61.0202C143.484 60.9286 143.272 60.8423 143.138 60.7612C143.005 60.68 142.837 60.5675 142.631 60.4236C142.424 60.2797 142.272 60.1227 142.173 59.9553C142.073 59.7904 141.987 59.5942 141.914 59.3665C141.84 59.1415 141.804 58.8877 141.804 58.6104C141.804 57.7207 142.139 57.0169 142.809 56.4988C143.478 55.9807 144.399 55.7217 145.566 55.7217C146.733 55.7217 147.67 56.0017 148.374 56.559C149.078 57.1163 149.428 57.9274 149.428 58.9898H148.214L148.22 58.9871Z" fill="white"/>
<path d="M166.182 66.1746C165.876 66.2819 165.544 66.3342 165.185 66.3342C164.641 66.3342 164.283 66.1694 164.11 65.8371C163.937 65.5048 163.851 65.0469 163.851 64.4634C162.987 65.8319 161.7 66.5148 159.986 66.5148C158.937 66.5148 158.118 66.2636 157.527 65.7586C156.935 65.2536 156.64 64.5498 156.64 63.647C156.64 61.8024 157.909 60.7453 160.444 60.481C160.578 60.4679 160.763 60.4522 161.002 60.4313C161.24 60.4104 161.418 60.3947 161.53 60.3816C161.643 60.3685 161.789 60.3528 161.967 60.3319C162.145 60.3109 162.278 60.2952 162.365 60.2822C162.451 60.2691 162.558 60.2481 162.684 60.222C162.81 60.1958 162.909 60.1696 162.982 60.1435C163.055 60.1173 163.131 60.0859 163.212 60.0545C163.291 60.0205 163.364 59.9839 163.432 59.9446C163.67 59.785 163.791 59.4606 163.791 58.9687C163.791 58.1575 163.566 57.5871 163.113 57.2548C162.66 56.9225 161.998 56.7577 161.122 56.7577C160.245 56.7577 159.599 56.9539 159.141 57.3464C158.683 57.7389 158.414 58.3459 158.335 59.1675H157.139C157.192 58.0659 157.576 57.2156 158.293 56.619C159.01 56.0224 159.999 55.7241 161.261 55.7241C162.43 55.7241 163.349 55.9753 164.018 56.4803C164.688 56.9853 165.023 57.7153 165.023 58.6704V64.2462C165.023 64.5105 165.031 64.7015 165.044 64.814C165.057 64.9265 165.115 65.0338 165.214 65.1333C165.314 65.2327 165.476 65.2824 165.701 65.2824C165.874 65.2824 166.033 65.2615 166.18 65.2222V66.1773L166.182 66.1746ZM163.205 60.9886C162.933 61.075 162.684 61.1378 162.459 61.177C162.234 61.2163 161.849 61.2686 161.305 61.3366C161.172 61.3497 161.072 61.3628 161.007 61.3759C160.583 61.4282 160.232 61.4884 159.96 61.5538C159.688 61.6192 159.377 61.7291 159.023 61.8835C158.673 62.0353 158.406 62.2498 158.228 62.5219C158.047 62.794 157.958 63.129 157.958 63.5267C157.958 64.1233 158.17 64.5995 158.597 64.9501C159.021 65.3007 159.594 65.4786 160.311 65.4786C161.279 65.4786 162.103 65.1908 162.781 64.6126C163.458 64.0343 163.796 63.2755 163.796 62.3335V60.6616C163.676 60.795 163.479 60.9049 163.207 60.9912L163.205 60.9886Z" fill="white"/>
<path d="M168.712 57.9301C169.136 57.1739 169.631 56.6165 170.196 56.2581C170.761 55.8996 171.473 55.7217 172.336 55.7217C173.399 55.7217 174.254 56.0147 174.906 56.5982C175.557 57.1817 175.882 58.0713 175.882 59.2671V66.2376H174.628V59.6648C174.628 57.7652 173.76 56.818 172.02 56.818C171.039 56.818 170.254 57.1477 169.67 57.8045C169.087 58.4612 168.794 59.4267 168.794 60.701V66.2376H167.54V56.0016H168.715V57.9327L168.712 57.9301Z" fill="white"/>
<path d="M187.232 66.235H186.097V64.2229C185.791 64.9791 185.317 65.5547 184.673 65.9446C184.03 66.3371 183.276 66.5333 182.413 66.5333C180.992 66.5333 179.867 66.044 179.037 65.0707C178.208 64.0947 177.792 62.7785 177.792 61.117C177.792 59.4555 178.205 58.1551 179.037 57.1739C179.867 56.1927 180.979 55.7008 182.373 55.7008C184.153 55.7008 185.367 56.4386 186.018 57.9118V52.0559H187.232V66.235ZM179.995 57.9222C179.364 58.7124 179.048 59.7721 179.048 61.0987C179.048 62.4253 179.364 63.5295 179.995 64.3249C180.626 65.1204 181.471 65.5207 182.533 65.5207C183.595 65.5207 184.482 65.1282 185.113 64.3459C185.744 63.5635 186.06 62.4881 186.06 61.1197C186.06 59.8977 185.762 58.8616 185.165 58.0138C184.569 57.1634 183.684 56.7395 182.517 56.7395C181.468 56.7395 180.628 57.1346 179.998 57.9248L179.995 57.9222Z" fill="white"/>
<path d="M205.198 53.2124H200.218V66.2376H198.866V53.2124H193.886V52.0559H205.198V53.2124Z" fill="white"/>
<path d="M209.677 57.1136C209.625 57.1136 209.562 57.111 209.489 57.1032C209.416 57.0953 209.366 57.0927 209.34 57.0927C208.57 57.0927 207.882 57.3151 207.278 57.7599C206.673 58.2047 206.273 58.7934 206.074 59.5235C205.915 60.1462 205.836 60.9914 205.836 62.0537V66.2349H204.601V55.999H205.776V58.4481C206.213 57.5061 206.718 56.8389 207.288 56.4464C207.859 56.0539 208.657 55.8524 209.677 55.8394V57.1136Z" fill="white"/>
<path d="M219.696 66.1746C219.39 66.2819 219.058 66.3342 218.699 66.3342C218.155 66.3342 217.796 66.1694 217.624 65.8371C217.451 65.5048 217.365 65.0469 217.365 64.4634C216.501 65.8319 215.214 66.5148 213.5 66.5148C212.451 66.5148 211.632 66.2636 211.04 65.7586C210.449 65.2536 210.153 64.5498 210.153 63.647C210.153 61.8024 211.422 60.7453 213.958 60.481C214.091 60.4679 214.277 60.4522 214.515 60.4313C214.753 60.4104 214.931 60.3947 215.044 60.3816C215.156 60.3685 215.303 60.3528 215.481 60.3319C215.661 60.3109 215.792 60.2952 215.878 60.2822C215.965 60.2691 216.072 60.2481 216.198 60.222C216.323 60.1958 216.423 60.1696 216.496 60.1435C216.569 60.1173 216.645 60.0859 216.726 60.0545C216.805 60.0205 216.878 59.9839 216.946 59.9446C217.184 59.785 217.304 59.4606 217.304 58.9687C217.304 58.1575 217.079 57.5871 216.627 57.2548C216.174 56.9225 215.512 56.7577 214.636 56.7577C213.759 56.7577 213.113 56.9539 212.655 57.3464C212.197 57.7389 211.927 58.3459 211.849 59.1675H210.653C210.705 58.0659 211.09 57.2156 211.81 56.619C212.529 56.0224 213.516 55.7241 214.777 55.7241C215.946 55.7241 216.865 55.9753 217.535 56.4803C218.205 56.9853 218.539 57.7153 218.539 58.6704V64.2462C218.539 64.5105 218.547 64.7015 218.56 64.814C218.573 64.9265 218.631 65.0338 218.73 65.1333C218.83 65.2327 218.992 65.2824 219.22 65.2824C219.392 65.2824 219.552 65.2615 219.699 65.2222V66.1773L219.696 66.1746ZM216.718 60.9886C216.446 61.075 216.198 61.1378 215.973 61.177C215.748 61.2163 215.363 61.2686 214.816 61.3366C214.683 61.3497 214.583 61.3628 214.518 61.3759C214.094 61.4282 213.743 61.4884 213.471 61.5538C213.199 61.6192 212.888 61.7291 212.534 61.8835C212.184 62.0353 211.917 62.2498 211.739 62.5219C211.561 62.794 211.47 63.129 211.47 63.5267C211.47 64.1233 211.681 64.5995 212.108 64.9501C212.534 65.3007 213.105 65.4786 213.822 65.4786C214.79 65.4786 215.614 65.1908 216.292 64.6126C216.97 64.0343 217.307 63.2755 217.307 62.3335V60.6616C217.187 60.795 216.99 60.9049 216.718 60.9912V60.9886Z" fill="white"/>
<path d="M225.233 66.2352H223.877L219.934 55.9993H221.269L223.657 62.2319C223.843 62.7369 224.155 63.6605 224.594 65.0002C224.992 63.726 225.303 62.7709 225.531 62.1325L227.742 55.9993H228.995L225.233 66.2352Z" fill="white"/>
<path d="M237.321 65.5887C236.565 66.2455 235.594 66.5751 234.414 66.5751C232.993 66.5751 231.855 66.0911 231 65.1203C230.144 64.1496 229.715 62.857 229.715 61.2374C229.715 59.6177 230.149 58.2938 231.021 57.2654C231.892 56.2371 233.014 55.7217 234.396 55.7217C235.777 55.7217 236.955 56.2319 237.732 57.255C238.509 58.2781 238.896 59.5445 238.896 61.0594V61.4179H230.989C230.989 62.6006 231.277 63.5844 231.855 64.3746C232.433 65.1648 233.3 65.5599 234.453 65.5599C236.138 65.5599 237.182 64.6651 237.58 62.8701H238.794C238.569 64.0266 238.077 64.9319 237.321 65.5887ZM236.664 57.7207C236.081 57.0771 235.309 56.7552 234.354 56.7552C233.318 56.7552 232.533 57.0928 231.994 57.7704C231.455 58.4481 231.12 59.3247 230.989 60.4001H237.64C237.575 59.2593 237.248 58.3644 236.664 57.7207Z" fill="white"/>
<path d="M241.882 66.235H240.647V52.0559H241.882V66.235Z" fill="white"/>
<path d="M250.425 58.9871C250.305 57.5009 249.384 56.7578 247.657 56.7578C246.927 56.7578 246.346 56.9096 245.914 57.2157C245.482 57.5219 245.268 57.9327 245.268 58.4507C245.268 58.7019 245.315 58.9217 245.406 59.1075C245.498 59.2933 245.605 59.4424 245.726 59.5549C245.846 59.6674 246.055 59.7773 246.354 59.8846C246.652 59.9919 246.911 60.073 247.131 60.1332C247.35 60.1934 247.706 60.2745 248.196 60.3818C248.633 60.489 248.986 60.5754 249.25 60.6408C249.514 60.7062 249.844 60.824 250.237 60.9888C250.629 61.1536 250.938 61.3342 251.163 61.5278C251.388 61.7214 251.584 61.9779 251.752 62.3049C251.916 62.6294 252 62.9983 252 63.4091C252 64.3511 251.626 65.1125 250.875 65.6881C250.124 66.2664 249.145 66.5542 247.937 66.5542C246.623 66.5542 245.6 66.235 244.87 65.5992C244.14 64.9607 243.761 64.058 243.734 62.891H244.948C244.948 63.7414 245.213 64.3903 245.744 64.843C246.275 65.2957 247.018 65.5207 247.973 65.5207C248.81 65.5207 249.483 65.3375 249.993 64.9738C250.503 64.6075 250.76 64.1261 250.76 63.5295C250.76 63.2103 250.676 62.9329 250.511 62.6922C250.346 62.4541 250.124 62.2631 249.844 62.1244C249.564 61.9857 249.289 61.8732 249.017 61.7869C248.745 61.7005 248.457 61.6246 248.151 61.5566C248.057 61.5435 247.992 61.5304 247.952 61.5173C247.858 61.4912 247.646 61.4415 247.314 61.3682C246.982 61.2949 246.749 61.2426 246.618 61.2086C246.484 61.1746 246.272 61.1118 245.979 61.0202C245.686 60.9286 245.474 60.8423 245.341 60.7612C245.207 60.68 245.04 60.5675 244.833 60.4236C244.627 60.2771 244.475 60.1227 244.375 59.9553C244.276 59.7904 244.19 59.5942 244.116 59.3665C244.043 59.1415 244.006 58.8877 244.006 58.6104C244.006 57.7207 244.341 57.0169 245.011 56.4988C245.681 55.9807 246.602 55.7217 247.769 55.7217C248.936 55.7217 249.873 56.0017 250.577 56.559C251.281 57.1163 251.631 57.9274 251.631 58.9898H250.417L250.425 58.9871Z" fill="white"/>
</g>
<defs>
<clipPath id="clip0_42_693">
<rect width="251.556" height="82.3901" fill="white" transform="translate(0.444458 0.666748)"/>
</clipPath>
</defs>
</svg>
