<svg width="15" height="16" viewBox="0 0 15 16" fill="none" xmlns="http://www.w3.org/2000/svg">
<g clip-path="url(#clip0_90_9)">
<path d="M13.1004 1.86291L13.1005 1.8629C13.2199 1.81747 13.3499 1.80754 13.4749 1.83429C13.5999 1.86105 13.7144 1.92335 13.8048 2.0137C13.8952 2.10444 13.9573 2.21943 13.9837 2.34475C14.0102 2.47008 13.9997 2.60039 13.9536 2.71991L13.9536 2.72003L9.63749 14.1216C9.63746 14.1217 9.63744 14.1218 9.63741 14.1219C9.58653 14.2486 9.49873 14.3571 9.38541 14.4332C9.27202 14.5094 9.13833 14.5498 9.00171 14.549H9.00159H8.97358C8.70414 14.5367 8.48057 14.3567 8.392 14.1001L8.39185 14.0997C8.39102 14.0974 8.39025 14.0952 8.3895 14.093C8.38859 14.0903 8.38772 14.0876 8.38685 14.0847L8.38698 14.0847L8.38604 14.0824L6.71434 10.1667C6.69256 10.0943 6.69005 10.0174 6.70709 9.94365C6.7242 9.86955 6.76046 9.80124 6.81223 9.74553L12.6661 3.46632C12.6662 3.46623 12.6663 3.46614 12.6664 3.46604C12.6869 3.4454 12.7033 3.42091 12.7144 3.39398C12.7256 3.36692 12.7314 3.33793 12.7314 3.30865C12.7314 3.27936 12.7256 3.25037 12.7144 3.22331C12.7032 3.19626 12.6868 3.17168 12.6661 3.15097C12.6454 3.13027 12.6208 3.11384 12.5937 3.10264C12.5667 3.09143 12.5377 3.08566 12.5084 3.08566C12.4791 3.08566 12.4501 3.09143 12.4231 3.10264C12.3961 3.11379 12.3717 3.13013 12.351 3.15071C12.3509 3.1508 12.3508 3.15088 12.3507 3.15097L6.06867 9.00454C6.01297 9.05631 5.94465 9.09257 5.87055 9.10968C5.79683 9.12672 5.71994 9.12421 5.64749 9.10243L1.73405 7.4313L1.73409 7.43121L1.73211 7.43059L1.72075 7.42699C1.7207 7.42697 1.72065 7.42695 1.7206 7.42694C1.59122 7.38361 1.47837 7.30142 1.39743 7.19158C1.31646 7.0817 1.27139 6.9495 1.26837 6.81304C1.26535 6.67659 1.30453 6.54252 1.38055 6.42916C1.45549 6.31741 1.56265 6.23114 1.68773 6.18178V6.18258L1.6953 6.17972L13.1004 1.86291Z" fill="black" stroke="#112211" stroke-width="0.0427661"/>
</g>
<defs>
<clipPath id="clip0_90_9">
<rect width="14.5975" height="14.5975" fill="white" transform="translate(0.334473 0.885376)"/>
</clipPath>
</defs>
</svg>
